<svg width="855.125px" height="273.4700073242187px" xmlns="http://www.w3.org/2000/svg" viewBox="-177.5625 -61.735003662109364 855.125 273.4700073242187" style="background: rgb(255, 255, 0);" preserveAspectRatio="xMidYMid"><defs><filter id="editing-lego" x="-100%" y="-100%" width="300%" height="300%"><feFlood flood-color="#000" result="f1"></feFlood><feFlood flood-color="#ffff00" result="f2"></feFlood><feMorphology operator="dilate" radius="3" in="SourceAlpha"></feMorphology><feConvolveMatrix order="5,5" divisor="1" result="cm1" kernelMatrix="0 1 1 1 0  1 0 0 0 1  1 0 0 0 1  1 0 0 0 1  0 1 1 1 0"></feConvolveMatrix><feComposite operator="in" in="f1" in2="cm1" result="c1"></feComposite><feMorphology operator="dilate" radius="3"></feMorphology><feConvolveMatrix order="5,5" divisor="1" result="cm2" kernelMatrix="0 1 1 1 0  1 0 0 0 1  1 0 0 0 1  1 0 0 0 1  0 1 1 1 0"></feConvolveMatrix><feComposite operator="in" in="f2" in2="cm2" result="c2"></feComposite><feMerge><feMergeNode in="c2"></feMergeNode><feMergeNode in="c1"></feMergeNode><feMergeNode in="SourceGraphic"></feMergeNode></feMerge></filter></defs><g filter="url(#editing-lego)"><g transform="translate(-57.999985218048096, 134.1999969482422)"><path d="M86.24-33.12L86.24-33.12L86.24-33.12Q90.40-30.08 90.40-23.60L90.40-23.60L90.40-23.60Q90.40-17.12 87.60-12.56L87.60-12.56L87.60-12.56Q84.80-8 79.36-4.48L79.36-4.48L79.36-4.48Q67.68 3.04 47.28 3.04L47.28 3.04L47.28 3.04Q26.88 3.04 15.76-7.60L15.76-7.60L15.76-7.60Q4.64-18.24 4.64-37.12L4.64-37.12L4.64-37.12Q4.64-63.84 18.56-84.16L18.56-84.16L18.56-84.16Q29.12-99.20 48-105.60L48-105.60L48-105.60Q57.76-108.80 67.36-108.80L67.36-108.80L67.36-108.80Q76.96-108.80 82.88-107.52L82.88-107.52L82.88-107.52Q88.80-106.24 93.28-103.68L93.28-103.68L93.28-103.68Q103.04-98.08 103.04-89.12L103.04-89.12L103.04-89.12Q103.04-80.96 95.36-74.88L95.36-74.88L95.36-74.88Q88.32-69.44 82.56-69.44L82.56-69.44L82.56-69.44Q76.80-69.44 74.40-70.24L74.40-70.24L74.40-70.24Q75.04-76 75.04-79.76L75.04-79.76L75.04-79.76Q75.04-83.52 74.88-86.24L74.88-86.24L74.88-86.24Q74.72-88.96 73.92-91.52L73.92-91.52L73.92-91.52Q72.32-97.44 67.44-97.44L67.44-97.44L67.44-97.44Q62.56-97.44 57.68-92.88L57.68-92.88L57.68-92.88Q52.80-88.32 48.64-80.64L48.64-80.64L48.64-80.64Q39.20-63.20 39.20-42.56L39.20-42.56L39.20-42.56Q39.20-32.64 44.80-26.96L44.80-26.96L44.80-26.96Q50.40-21.28 62.40-21.28L62.40-21.28L62.40-21.28Q71.36-21.28 79.84-27.20L79.84-27.20L79.84-27.20Q83.52-29.76 86.24-33.12ZM138.56 3.20L138.56 3.20L138.56 3.20Q103.36 3.20 103.36-29.92L103.36-29.92L103.36-29.92Q103.36-53.44 116.32-68.64L116.32-68.64L116.32-68.64Q130.08-84.80 153.92-84.80L153.92-84.80L153.92-84.80Q171.20-84.80 180-76.80L180-76.80L180-76.80Q188.80-68.80 188.80-52L188.80-52L188.80-52Q188.80-26.40 175.04-11.52L175.04-11.52L175.04-11.52Q161.60 3.20 138.56 3.20ZM142.72-66.40L142.72-66.40L142.72-66.40Q140.80-62.08 139.28-55.60L139.28-55.60L139.28-55.60Q137.76-49.12 135.84-38.88L135.84-38.88L135.84-38.88Q133.92-28.64 133.92-16L133.92-16L133.92-16Q133.92-11.84 135.28-9.12L135.28-9.12L135.28-9.12Q136.64-6.40 140.32-6.40L140.32-6.40L140.32-6.40Q144-6.40 146.32-8.16L146.32-8.16L146.32-8.16Q148.64-9.92 150.40-14.08L150.40-14.08L150.40-14.08Q153.60-21.44 156.16-35.12L156.16-35.12L156.16-35.12Q158.72-48.80 158.96-54.72L158.96-54.72L158.96-54.72Q159.20-60.64 159.20-65.04L159.20-65.04L159.20-65.04Q159.20-69.44 157.92-72.32L157.92-72.32L157.92-72.32Q156.64-75.20 153.04-75.20L153.04-75.20L153.04-75.20Q149.44-75.20 147.04-72.96L147.04-72.96L147.04-72.96Q144.64-70.72 142.72-66.40ZM233.12 3.20L233.12 3.20L233.12 3.20Q197.92 3.20 197.92-29.92L197.92-29.92L197.92-29.92Q197.92-53.44 210.88-68.64L210.88-68.64L210.88-68.64Q224.64-84.80 248.48-84.80L248.48-84.80L248.48-84.80Q265.76-84.80 274.56-76.80L274.56-76.80L274.56-76.80Q283.36-68.80 283.36-52L283.36-52L283.36-52Q283.36-26.40 269.60-11.52L269.60-11.52L269.60-11.52Q256.16 3.20 233.12 3.20ZM237.28-66.40L237.28-66.40L237.28-66.40Q235.36-62.08 233.84-55.60L233.84-55.60L233.84-55.60Q232.32-49.12 230.40-38.88L230.40-38.88L230.40-38.88Q228.48-28.64 228.48-16L228.48-16L228.48-16Q228.48-11.84 229.84-9.12L229.84-9.12L229.84-9.12Q231.20-6.40 234.88-6.40L234.88-6.40L234.88-6.40Q238.56-6.40 240.88-8.16L240.88-8.16L240.88-8.16Q243.20-9.92 244.96-14.08L244.96-14.08L244.96-14.08Q248.16-21.44 250.72-35.12L250.72-35.12L250.72-35.12Q253.28-48.80 253.52-54.72L253.52-54.72L253.52-54.72Q253.76-60.64 253.76-65.04L253.76-65.04L253.76-65.04Q253.76-69.44 252.48-72.32L252.48-72.32L252.48-72.32Q251.20-75.20 247.60-75.20L247.60-75.20L247.60-75.20Q244-75.20 241.60-72.96L241.60-72.96L241.60-72.96Q239.20-70.72 237.28-66.40ZM331.04-8.80L331.04-8.80L331.04-8.80Q326.08 3.20 310.24 3.20L310.24 3.20L310.24 3.20Q302.24 3.20 297.12-2.40L297.12-2.40L297.12-2.40Q292.96-7.04 292.96-12.32L292.96-12.32L292.96-12.32Q292.96-24.32 298.56-50.56L298.56-50.56L310.24-112L342.72-115.20L327.20-34.24L327.20-34.24Q324.48-22.40 324.48-18.24L324.48-18.24L324.48-18.24Q324.48-9.12 331.04-8.80ZM343.04-0.80L343.04-0.80L363.20-105.60L363.20-105.60Q382.08-107.20 394.24-107.20L394.24-107.20L394.24-107.20Q406.40-107.20 414.24-106.16L414.24-106.16L414.24-106.16Q422.08-105.12 427.36-102.40L427.36-102.40L427.36-102.40Q437.92-97.28 437.92-83.20L437.92-83.20L437.92-83.20Q437.92-75.04 430.88-68.16L430.88-68.16L430.88-68.16Q424.32-61.92 417.12-60.48L417.12-60.48L417.12-60.48Q424.80-59.20 430.24-53.44L430.24-53.44L430.24-53.44Q436.00-47.36 436.00-37.92L436.00-37.92L436.00-37.92Q436.00-19.68 422.40-9.04L422.40-9.04L422.40-9.04Q408.80 1.60 382.08 1.60L382.08 1.60L382.08 1.60Q363.68 1.60 343.04-0.80ZM386.56-51.52L378.56-10.08L378.56-10.08Q380.00-9.92 380.32-9.92L380.32-9.92L381.76-9.92L381.76-9.92Q394.88-9.92 400.48-18.56L400.48-18.56L400.48-18.56Q404.64-25.28 404.64-37.60L404.64-37.60L404.64-37.60Q404.64-44.16 400.40-47.68L400.40-47.68L400.40-47.68Q396.16-51.20 386.56-51.52L386.56-51.52ZM410.88-83.04L410.88-83.04L410.88-83.04Q410.88-96.32 398.08-96.32L398.08-96.32L396.64-96.32L396.64-96.32Q396.00-96.32 395.04-96.16L395.04-96.16L388.64-62.40L390.24-62.40L390.24-62.40Q410.88-62.88 410.88-83.04ZM511.36-27.04L511.36-27.04L511.36-27.04Q515.36-24.32 515.36-18.32L515.36-18.32L515.36-18.32Q515.36-12.32 512.32-8.48L512.32-8.48L512.32-8.48Q509.28-4.64 504.32-2.08L504.32-2.08L504.32-2.08Q494.08 3.20 483.04 3.20L483.04 3.20L483.04 3.20Q472.00 3.20 465.52 0.80L465.52 0.80L465.52 0.80Q459.04-1.60 454.72-6.08L454.72-6.08L454.72-6.08Q446.24-14.56 446.24-30.08L446.24-30.08L446.24-30.08Q446.24-54.24 459.36-68.96L459.36-68.96L459.36-68.96Q473.44-84.80 497.92-84.80L497.92-84.80L497.92-84.80Q513.12-84.80 520.64-78.40L520.64-78.40L520.64-78.40Q526.24-73.60 526.24-65.76L526.24-65.76L526.24-65.76Q526.24-37.60 477.60-37.60L477.60-37.60L477.60-37.60Q476.96-33.44 476.96-29.92L476.96-29.92L476.96-29.92Q476.96-22.56 480.24-19.76L480.24-19.76L480.24-19.76Q483.52-16.96 489.60-16.96L489.60-16.96L489.60-16.96Q495.68-16.96 502.16-19.76L502.16-19.76L502.16-19.76Q508.64-22.56 511.36-27.04ZM478.72-44.48L478.72-44.48L478.72-44.48Q490.08-44.48 496.64-51.52L496.64-51.52L496.64-51.52Q503.20-58.24 503.20-68.96L503.20-68.96L503.20-68.96Q503.20-72.64 501.84-74.64L501.84-74.64L501.84-74.64Q500.48-76.64 497.76-76.64L497.76-76.64L497.76-76.64Q495.04-76.64 492.72-75.60L492.72-75.60L492.72-75.60Q490.40-74.56 488.00-71.04L488.00-71.04L488.00-71.04Q482.08-63.04 478.72-44.48ZM596.48-27.04L596.48-27.04L596.48-27.04Q600.48-24.32 600.48-18.32L600.48-18.32L600.48-18.32Q600.48-12.32 597.44-8.48L597.44-8.48L597.44-8.48Q594.40-4.64 589.44-2.08L589.44-2.08L589.44-2.08Q579.20 3.20 568.16 3.20L568.16 3.20L568.16 3.20Q557.12 3.20 550.64 0.80L550.64 0.80L550.64 0.80Q544.16-1.60 539.84-6.08L539.84-6.08L539.84-6.08Q531.36-14.56 531.36-30.08L531.36-30.08L531.36-30.08Q531.36-54.24 544.48-68.96L544.48-68.96L544.48-68.96Q558.56-84.80 583.04-84.80L583.04-84.80L583.04-84.80Q598.24-84.80 605.76-78.40L605.76-78.40L605.76-78.40Q611.36-73.60 611.36-65.76L611.36-65.76L611.36-65.76Q611.36-37.60 562.72-37.60L562.72-37.60L562.72-37.60Q562.08-33.44 562.08-29.92L562.08-29.92L562.08-29.92Q562.08-22.56 565.36-19.76L565.36-19.76L565.36-19.76Q568.64-16.96 574.72-16.96L574.72-16.96L574.72-16.96Q580.80-16.96 587.28-19.76L587.28-19.76L587.28-19.76Q593.76-22.56 596.48-27.04ZM563.84-44.48L563.84-44.48L563.84-44.48Q575.20-44.48 581.76-51.52L581.76-51.52L581.76-51.52Q588.32-58.24 588.32-68.96L588.32-68.96L588.32-68.96Q588.32-72.64 586.96-74.64L586.96-74.64L586.96-74.64Q585.60-76.64 582.88-76.64L582.88-76.64L582.88-76.64Q580.16-76.64 577.84-75.60L577.84-75.60L577.84-75.60Q575.52-74.56 573.12-71.04L573.12-71.04L573.12-71.04Q567.20-63.04 563.84-44.48Z" fill="#fff"></path></g></g><style>text {
  font-size: 64px;
  font-family: Arial Black;
  dominant-baseline: central;
  text-anchor: middle;
}</style></svg>